<svg  xmlns="http://www.w3.org/2000/svg" xmlns:xlink="http://www.w3.org/1999/xlink">
    <symbol id="logo-icon">
        <svg xmlns="http://www.w3.org/2000/svg" viewBox="0 0 79 77"><path fill="#2E5CF4" d="M35.9099 36.8864a1.364 1.364 0 0 1-.9624-2.3237L63.4267 6.0836a1.3605 1.3605 0 0 1 1.482-.2959 1.3601 1.3601 0 0 1 .4428 2.218L36.8688 36.4885a1.3604 1.3604 0 0 1-.9589.398Zm-6.681-6.6784a1.363 1.363 0 0 1-.9624-2.3272L53.2314 2.9194a1.3596 1.3596 0 0 1 1.482-.2958 1.3607 1.3607 0 0 1 .8405 1.256 1.3613 1.3613 0 0 1-.3977.962L30.1913 29.8065a1.365 1.365 0 0 1-.9624.4015Zm-5.5462-7.8177a1.3617 1.3617 0 0 1-1.2571-.8377 1.361 1.361 0 0 1 .2903-1.4825L41.9021.8892a1.3532 1.3532 0 0 1 .9693-.4215c.3676-.007.7212.1359.9798.398a1.3562 1.3562 0 0 1 .3994.9803 1.3575 1.3575 0 0 1-.4264.9689L24.6425 21.9958a1.3506 1.3506 0 0 1-.9598.3945Zm-14.173-8.1825c-.7516 0-1.3613-.6097-1.3613-1.3613v-.3501a1.3613 1.3613 0 1 1 2.7226 0v.351a1.3617 1.3617 0 0 1-1.3613 1.3604Zm0 7.1479c-.7516 0-1.3613-.6097-1.3613-1.3613v-.3502a1.3612 1.3612 0 0 1 2.7226 0v.351a1.3556 1.3556 0 0 1-.8397 1.2583 1.358 1.358 0 0 1-.5216.1022Zm3.7495-3.7495h-.3501a1.3604 1.3604 0 0 1-1.2573-.8401 1.3603 1.3603 0 0 1 .295-1.483 1.361 1.361 0 0 1 .9623-.3986h.3501a1.3612 1.3612 0 0 1 1.2572.8401 1.3608 1.3608 0 0 1-1.2572 1.8816Zm-7.1479 0h-.3501a1.3607 1.3607 0 0 1-.9623-2.3231 1.3606 1.3606 0 0 1 .9623-.3986h.3501a1.3607 1.3607 0 0 1 1.2573 1.8816 1.3604 1.3604 0 0 1-1.2573.8401ZM20.6448 3.0727c-.7516 0-1.3613-.6097-1.3613-1.3613v-.3501a1.3613 1.3613 0 1 1 2.7226 0v.3501c0 .364-.1463.708-.4015.9633a1.3543 1.3543 0 0 1-.9598.398Zm0 7.1514c-.7516 0-1.3613-.6097-1.3613-1.3613v-.3536c0-.749.6097-1.3605 1.3613-1.3605.749 0 1.3613.6123 1.3613 1.3605v.3544a1.3658 1.3658 0 0 1-1.3613 1.3605Zm3.7495-3.753h-.3502a1.3607 1.3607 0 0 1-.9622-2.323 1.3607 1.3607 0 0 1 .9622-.3987h.3502a1.3607 1.3607 0 0 1 .9622 2.3232 1.3607 1.3607 0 0 1-.9622.3985Zm-7.1479 0h-.3536a1.361 1.361 0 0 1 0-2.7217h.3536c.749 0 1.3613.6123 1.3613 1.3613 0 .7517-.6132 1.3605-1.3613 1.3605Zm37.8932 49.301a1.3612 1.3612 0 0 1-.9667-2.3202l22.2205-22.2232a1.3615 1.3615 0 0 1 2.3049.9679c.0035.3564-.133.7-.3801.9569L56.0916 55.374a1.3372 1.3372 0 0 1-.952.3981Zm-5.2126-5.2127a1.3617 1.3617 0 0 1-1.2571-.8377 1.3618 1.3618 0 0 1 .2903-1.4825l19.4779-19.477a1.3585 1.3585 0 0 1 .4411-.2951 1.3587 1.3587 0 0 1 1.041-.0007 1.3602 1.3602 0 0 1 .4427 2.218l-19.4718 19.477a1.3641 1.3641 0 0 1-.9641.398Zm-4.3278-6.0966a1.3546 1.3546 0 0 1-1.2655-.8405 1.3626 1.3626 0 0 1 .2997-1.4867l14.9698-14.969a1.367 1.367 0 0 1 1.9013.0244c.5208.5235.5313 1.3639.0244 1.9013L46.559 44.0613a1.3591 1.3591 0 0 1-.9598.4015Zm3.6406 21.3182c-.749 0-1.3613-.6097-1.3613-1.3613v-.3501a1.361 1.361 0 0 1 2.3231-.9623 1.361 1.361 0 0 1 .3986.9623v.351a1.3617 1.3617 0 0 1-1.3604 1.3604Zm0 7.1444c-.749 0-1.3613-.6097-1.3613-1.3613v-.3397a1.3608 1.3608 0 0 1 2.7217 0v.3397a1.3622 1.3622 0 0 1-1.3604 1.3613Zm3.7529-3.7425h-.3501a1.3606 1.3606 0 0 1-1.3609-1.3608 1.361 1.361 0 0 1 1.3609-1.3609h.3501a1.361 1.361 0 0 1 .9623 2.3231 1.3606 1.3606 0 0 1-.9623.3986Zm-7.1479 0h-.3536a1.3608 1.3608 0 1 1 0-2.7217h.3536c.7491 0 1.3613.6097 1.3613 1.3613 0 .7516-.6131 1.3604-1.3613 1.3604Zm25.0799-14.1868a1.3633 1.3633 0 0 1-1.3613-1.3613v-.3536c0-.7491.6096-1.3605 1.3613-1.3605.7516 0 1.3613.6123 1.3613 1.3605v.3544a1.366 1.366 0 0 1-.4.9613 1.365 1.365 0 0 1-.9613.3992Zm0 7.1513a1.3628 1.3628 0 0 1-1.3613-1.3613v-.3536a1.3614 1.3614 0 1 1 2.7226 0v.3545a1.366 1.366 0 0 1-.4.9613 1.3648 1.3648 0 0 1-.9613.3991Zm3.7494-3.7529h-.3501a1.361 1.361 0 0 1-.9623-2.3231 1.361 1.361 0 0 1 .9623-.3986h.3501a1.361 1.361 0 0 1 .9623 2.3231 1.361 1.361 0 0 1-.9623.3986Zm-7.1513 0h-.3502.0035a1.3607 1.3607 0 1 1 0-2.7217h.3501-.0034a1.3608 1.3608 0 0 1 0 2.7217Zm-9.152 15.8408a1.3677 1.3677 0 0 1-1.2655-.8405 1.3636 1.3636 0 0 1 .3057-1.4893l5.8728-5.8728h-.0034a1.3612 1.3612 0 1 1 1.9248 1.9257l-5.872 5.8684.0035.0035a1.3843 1.3843 0 0 1-.9659.405Zm9.8461 1.8708a1.3691 1.3691 0 0 1-1.269-.8405 1.367 1.367 0 0 1 .3031-1.4893l5.872-5.8728a1.3584 1.3584 0 0 1 1.9248.0035c.5312.5313.5312 1.3918 0 1.9222l-5.8711 5.8719a1.3622 1.3622 0 0 1-.9598.405Zm-65.93-42.7819a1.3624 1.3624 0 0 1-1.2628-.8335 1.3673 1.3673 0 0 1 .2935-1.4867l5.872-5.8719H7.186a1.3629 1.3629 0 0 1 1.9248 0c.5348.5313.5348 1.3944 0 1.9248l-5.8614 5.8728a1.3596 1.3596 0 0 1-.9624.3945Zm9.8427 1.8717a1.3517 1.3517 0 0 1-1.2551-.8405 1.3566 1.3566 0 0 1 .2927-1.4797l5.8719-5.8719h-.0035a1.3631 1.3631 0 0 1 1.9248 1.9248l-5.8711 5.8728a1.355 1.355 0 0 1-.9632.3945h.0035Z"/><path fill="#1A3FAE" fill-rule="evenodd" d="m42.679 52.051-12.988-2.457L23.339 38l-6.351 11.594L4 52.051l9.062 9.625-1.676 13.113 11.953-5.648 11.953 5.648-1.675-13.113 9.062-9.625Z" clip-rule="evenodd"/></svg>
    </symbol>
    <symbol id="logo-text">
        <svg viewBox="0 0 265 40" xmlns="http://www.w3.org/2000/svg"><path d="M22.602 1.986c-2.127-.811-4.58-1.212-7.359-1.212-2.601 0-4.951.446-7.038 1.344-2.093.898-3.728 2.173-4.906 3.825-1.178 1.652-1.767 3.568-1.767 5.746 0 2.779.84 5.077 2.533 6.907 1.687 1.83 4.603 3.396 8.754 4.694 1.72.526 3.03 1.012 3.928 1.452.897.44 1.52.932 1.87 1.475.354.544.525 1.241.525 2.082 0 1.195-.457 2.155-1.366 2.876-.915.72-2.201 1.08-3.854 1.08-3.162 0-6.203-1.195-9.12-3.585L0 33.993c3.694 3.557 8.456 5.33 14.294 5.33 3.059 0 5.723-.493 7.987-1.476 2.27-.983 4.003-2.367 5.198-4.14 1.195-1.778 1.79-3.825 1.79-6.146 0-3.196-.87-5.7-2.608-7.513-1.744-1.812-4.494-3.316-8.256-4.511-1.967-.629-3.408-1.16-4.323-1.578-.915-.423-1.566-.863-1.95-1.32-.388-.458-.582-1.036-.582-1.739 0-.989.377-1.75 1.137-2.298.755-.544 1.853-.818 3.294-.818 2.778 0 5.431 1.006 7.964 3.007l4.374-5.168c-1.687-1.618-3.59-2.83-5.717-3.637Zm40.891-.263H34.911v7.433h9.177v29.217h9.754V9.156h8.65l1.002-7.433Zm24.632 36.65h10.331L87.593 1.723H75.889l-10.863 36.65h10.126l1.635-7.49h9.703l1.635 7.49Zm-9.812-14.448 3.322-15.243 3.322 15.243h-6.644Zm39.709.949 7.175 13.499h10.864l-9.125-15.294c2.355-1.23 4.07-2.62 5.14-4.163 1.075-1.55 1.612-3.482 1.612-5.803 0-3.865-1.275-6.735-3.825-8.594-2.55-1.864-6.409-2.796-11.578-2.796H105.58v36.65h9.755v-13.5h2.687Zm-2.687-6.644V8.527h2.744c1.858 0 3.259.366 4.191 1.104.932.737 1.395 1.898 1.395 3.482 0 3.407-1.687 5.117-5.06 5.117h-3.27Zm53.264-16.507h-28.587v7.433h9.176v29.217h9.76V9.156h8.645l1.006-7.433Zm20.458 23.15 7.175 13.5h10.864l-9.125-15.294c2.355-1.23 4.07-2.62 5.14-4.163 1.075-1.55 1.612-3.482 1.612-5.803 0-3.865-1.275-6.735-3.825-8.594-2.55-1.864-6.409-2.796-11.578-2.796h-12.71v36.65h9.76v-13.5h2.687Zm-2.687-6.643V8.527h2.738c1.864 0 3.265.366 4.197 1.104.932.737 1.395 1.898 1.395 3.482 0 3.407-1.687 5.117-5.06 5.117h-3.27Zm37.97-16.507h-9.76v36.65h9.76V1.723Zm29.423 16.924 9.548-16.924h-10.286l-5.06 11.127-4.643-11.127h-10.491l9.279 17.193-10.017 19.457h10.332l5.431-13.236 5.695 13.236h10.6l-10.388-19.726Z"/></svg>
    </symbol>
    <symbol id="logo-sub-text">
        <svg viewBox="0 0 265 13" xmlns="http://www.w3.org/2000/svg">
        <path d="M0 10.2035H4.18526V9.27155H2.81304V5.56085H5.80333V6.70436H6.54089V3.49109H5.80333V4.56028H2.81304V1.23837H7.34707V3.31385H8.45628V0.30641H0V1.23837H1.37222V9.27155H0V10.2035ZM14.1281 1.52997C14.3111 1.69578 14.5398 1.78154 14.8085 1.78154C15.0772 1.78154 15.3002 1.69578 15.4832 1.52997C15.6661 1.35844 15.7576 1.14689 15.7576 0.8896C15.7576 0.626593 15.6661 0.415043 15.4832 0.243516C15.3002 0.0777071 15.0772 -0.00805664 14.8085 -0.00805664C14.5398 -0.00805664 14.3111 0.0777071 14.1281 0.243516C13.9509 0.415043 13.8594 0.626593 13.8594 0.8896C13.8594 1.14689 13.9509 1.35844 14.1281 1.52997ZM12.996 10.2035H16.8611V9.27155H15.6147V3.29669H13.0132V4.22866H14.3339V9.27155H12.996V10.2035ZM30.1201 9.27155H28.8394V5.42363C28.8394 4.6975 28.6221 4.13146 28.199 3.72551C27.7702 3.31956 27.227 3.11945 26.5695 3.11945C25.8205 3.11945 24.9915 3.40533 24.0767 3.9828V3.29669H21.458V4.22866H22.7902V9.27155H21.458V10.2035H25.3231V9.27155H24.0767V4.87474C24.4826 4.62889 24.8657 4.44592 25.2087 4.32586C25.5518 4.20007 25.8948 4.13718 26.2379 4.13718C26.6496 4.13718 26.9697 4.2744 27.2042 4.54312C27.4386 4.81185 27.5529 5.18921 27.5529 5.66948V9.27155H26.4151V10.2035H30.1201V9.27155ZM42.5387 9.27155H41.4466V0.129165H38.9137V1.04397H40.1487V3.83986C39.8057 3.60544 39.434 3.4282 39.0224 3.30241C38.6107 3.18234 38.2048 3.11945 37.8102 3.11945C37.187 3.11945 36.621 3.26239 36.1007 3.54255C35.5861 3.82271 35.1802 4.24009 34.8714 4.78898C34.5684 5.33786 34.414 5.98967 34.414 6.73867C34.414 7.47623 34.5741 8.12803 34.8886 8.68264C35.2087 9.23724 35.6318 9.66606 36.175 9.95765C36.7125 10.2492 37.3071 10.3979 37.9475 10.3979C38.7708 10.3979 39.5026 10.1692 40.1487 9.7118V10.2035H42.5387V9.27155ZM36.4609 8.72838C35.9978 8.27097 35.7691 7.64204 35.7691 6.8473C35.7691 5.97823 35.9806 5.30356 36.4037 4.82328C36.8211 4.34301 37.3814 4.10287 38.0732 4.10287C38.3991 4.10287 38.7479 4.16005 39.1081 4.28012C39.4741 4.39447 39.8171 4.56028 40.1487 4.77183V8.77984C39.5369 9.20294 38.8966 9.41449 38.2276 9.41449C37.5129 9.41449 36.924 9.18578 36.4609 8.72838ZM57.6102 11.9416V12.9994H58.5078C59.0796 12.9994 59.5255 12.9136 59.8457 12.7535C60.1602 12.5877 60.4003 12.359 60.5719 12.056C60.7434 11.7587 60.9549 11.2784 61.2122 10.6095L63.7794 4.22866H64.9058V3.29669H61.3037V4.22866H62.4987L60.6519 8.92278L58.5764 4.22866H59.5999V3.29669H55.9749V4.22866H57.2614L59.8229 9.76326H60.3717L60.0001 10.781C59.8857 11.1355 59.76 11.3928 59.6227 11.5586C59.4912 11.7187 59.3311 11.8273 59.1596 11.873C58.9824 11.9188 58.7308 11.9416 58.3992 11.9416H57.6102ZM70.9378 9.95765C71.5038 10.2607 72.1499 10.4151 72.8932 10.4151C73.6308 10.4151 74.2826 10.2607 74.8486 9.95765C75.4204 9.65462 75.8606 9.22009 76.1808 8.65405C76.4953 8.09373 76.6554 7.44764 76.6554 6.72151C76.6554 6.00682 76.4953 5.37789 76.1808 4.82328C75.8606 4.2744 75.4204 3.8513 74.8486 3.54827C74.2826 3.25095 73.6308 3.1023 72.8932 3.1023C72.1499 3.1023 71.5038 3.25095 70.9378 3.54827C70.3775 3.8513 69.9429 4.2744 69.6285 4.82328C69.3197 5.37789 69.1653 6.01254 69.1653 6.73867C69.1653 7.4648 69.3197 8.11088 69.6285 8.66548C69.9429 9.22009 70.3775 9.65462 70.9378 9.95765ZM74.6485 8.66548C74.2025 9.15148 73.6193 9.39733 72.8932 9.39733C72.1785 9.39733 71.601 9.15148 71.1608 8.66548C70.7205 8.17949 70.4975 7.53913 70.4975 6.73867C70.4975 5.95536 70.7148 5.32071 71.1493 4.84044C71.5839 4.36016 72.1671 4.12002 72.8932 4.12002C73.6193 4.12002 74.2025 4.36016 74.6485 4.83472C75.0945 5.30928 75.3174 5.93821 75.3174 6.72151C75.3174 7.53341 75.0945 8.17949 74.6485 8.66548ZM89.6285 9.27155H88.3478V3.29669H85.8149V4.22866H87.0613V8.37389C86.3581 9.01997 85.6091 9.34016 84.8143 9.34016C84.3798 9.34016 84.0539 9.21437 83.8366 8.9628C83.6193 8.71123 83.5107 8.36245 83.5107 7.91648V3.29669H81.0522V4.22866H82.2128V8.05942C82.2128 8.73981 82.4015 9.29442 82.7846 9.72895C83.1619 10.1635 83.7394 10.3808 84.517 10.3808C85.3689 10.3808 86.2208 10.0377 87.0613 9.35731L87.1013 10.2035H89.6285V9.27155ZM100.006 3.5597C99.5142 3.32528 99.0453 3.20521 98.5994 3.20521C97.7932 3.20521 97.1986 3.6569 96.8269 4.56028V3.29669H94.2026V4.22866H95.5405V9.27155H94.2026V10.2035H98.0562V9.27155H96.8269L96.8441 6.49281C96.8441 5.82386 96.9984 5.30356 97.3072 4.92048C97.6159 4.54312 98.0104 4.34873 98.4793 4.34873C98.8852 4.34873 99.2912 4.48023 99.6914 4.73752L100.006 3.5597ZM119.114 6.60716C118.794 6.46422 118.359 6.327 117.822 6.1955L116.924 6.0011C116.444 5.88675 116.107 5.75525 115.906 5.61802C115.706 5.47509 115.609 5.27497 115.609 5.01768C115.609 4.70321 115.746 4.46308 116.026 4.29727C116.312 4.13146 116.655 4.05141 117.067 4.05141C117.404 4.05141 117.747 4.12002 118.096 4.25153C118.439 4.38875 118.702 4.56028 118.88 4.77183L119 5.63518H119.914V3.26239H118.88V3.7884C118.657 3.57685 118.354 3.41105 117.97 3.29669C117.593 3.17663 117.221 3.11945 116.856 3.11945C116.107 3.11945 115.495 3.29098 115.02 3.63975C114.546 3.9828 114.305 4.45736 114.305 5.05199C114.305 5.66376 114.477 6.10973 114.814 6.39561C115.157 6.68721 115.683 6.91591 116.398 7.09316L117.364 7.30471C117.976 7.43049 118.388 7.57343 118.611 7.7278C118.834 7.87646 118.948 8.12803 118.948 8.48252C118.948 8.78555 118.8 9.03141 118.508 9.20865C118.216 9.39162 117.839 9.4831 117.382 9.4831C116.958 9.4831 116.558 9.40305 116.181 9.24296C115.798 9.08858 115.506 8.85988 115.306 8.56829L115.237 7.81357H114.323V10.2035H115.346V9.60317C115.581 9.83759 115.895 10.0263 116.295 10.1692C116.69 10.3064 117.113 10.3808 117.559 10.3808C118.285 10.3808 118.908 10.2092 119.423 9.87189C119.937 9.52884 120.195 9.03141 120.195 8.37389C120.195 7.90505 120.097 7.53341 119.897 7.24753C119.697 6.96737 119.434 6.75582 119.114 6.60716ZM115.1 8.12803L115.117 8.17949C115.106 8.16806 115.1 8.1509 115.1 8.12803ZM126.124 8.16234C126.124 9.52312 126.793 10.2035 128.131 10.2035H129.411V9.27155H128.354C128.016 9.27155 127.776 9.18578 127.633 9.00854C127.496 8.83129 127.427 8.52826 127.427 8.09373V4.22866H129.251V3.29669H127.427V0.432196L126.124 0.941059V3.29669H124.98V4.22866H126.124V8.16234ZM141.441 9.27155H140.349V5.56085C140.349 4.81185 140.092 4.21722 139.577 3.77697C139.063 3.33672 138.354 3.11945 137.45 3.11945C137.004 3.11945 136.524 3.18234 136.015 3.31385C135.506 3.43963 135.06 3.62831 134.671 3.87417L135.06 4.72037C135.42 4.52025 135.821 4.36588 136.261 4.25153C136.701 4.14289 137.09 4.08572 137.433 4.08572C137.948 4.08572 138.348 4.22294 138.634 4.49167C138.925 4.76039 139.068 5.16062 139.068 5.68664V6.40705C138.388 6.25267 137.748 6.17835 137.153 6.17835C136.318 6.17835 135.649 6.34987 135.14 6.69864C134.626 7.0417 134.374 7.59058 134.374 8.33958C134.374 8.92849 134.591 9.41449 135.032 9.809C135.472 10.1978 136.044 10.3979 136.747 10.3979C137.216 10.3979 137.639 10.335 138.011 10.2035C138.388 10.072 138.76 9.87189 139.137 9.58601L139.205 10.2035H141.441V9.27155ZM135.964 9.1572C135.723 8.92849 135.603 8.63118 135.603 8.27097C135.603 7.80213 135.758 7.4648 136.067 7.25897C136.381 7.05313 136.77 6.95022 137.239 6.95022C137.833 6.95022 138.445 7.02454 139.068 7.16177V8.74553C138.342 9.24868 137.633 9.50025 136.941 9.50025C136.53 9.50025 136.204 9.3859 135.964 9.1572ZM151.887 3.5597C151.395 3.32528 150.926 3.20521 150.481 3.20521C149.669 3.20521 149.08 3.6569 148.702 4.56028V3.29669H146.084V4.22866H147.422V9.27155H146.084V10.2035H149.932V9.27155H148.702L148.72 6.49281C148.72 5.82386 148.874 5.30356 149.188 4.92048C149.497 4.54312 149.886 4.34873 150.355 4.34873C150.766 4.34873 151.172 4.48023 151.567 4.73752L151.887 3.5597ZM167.679 4.84044C168.159 4.36016 168.777 4.12002 169.526 4.12002C170.063 4.12002 170.521 4.26296 170.898 4.55456C171.27 4.84044 171.51 5.23495 171.618 5.73809H172.602V3.26239H171.51V4.13718C171.304 3.82271 170.995 3.57114 170.601 3.38246C170.2 3.19378 169.743 3.1023 169.228 3.1023C168.537 3.1023 167.913 3.25667 167.364 3.5597C166.816 3.86273 166.381 4.28583 166.072 4.83472C165.764 5.37789 165.603 6.0011 165.603 6.70436C165.603 7.40762 165.769 8.03655 166.089 8.59687C166.41 9.15148 166.856 9.58601 167.427 9.9062C167.993 10.2207 168.639 10.3808 169.366 10.3808C170.069 10.3808 170.692 10.2493 171.23 9.98624C171.773 9.71752 172.219 9.35159 172.585 8.88275L172.041 8.09373C171.676 8.50539 171.304 8.81986 170.915 9.03713C170.526 9.24868 170.052 9.35731 169.491 9.35731C168.742 9.35731 168.131 9.11146 167.662 8.61403C167.193 8.1166 166.959 7.4648 166.959 6.67006C166.959 5.93249 167.199 5.32071 167.679 4.84044ZM184.912 9.27155H183.82V5.56085C183.82 4.81185 183.562 4.21722 183.048 3.77697C182.533 3.33672 181.824 3.11945 180.921 3.11945C180.475 3.11945 180 3.18234 179.491 3.31385C178.977 3.43963 178.531 3.62831 178.142 3.87417L178.531 4.72037C178.891 4.52025 179.297 4.36588 179.737 4.25153C180.172 4.14289 180.566 4.08572 180.904 4.08572C181.418 4.08572 181.818 4.22294 182.11 4.49167C182.396 4.76039 182.539 5.16062 182.539 5.68664V6.40705C181.858 6.25267 181.218 6.17835 180.623 6.17835C179.789 6.17835 179.12 6.34987 178.611 6.69864C178.102 7.0417 177.845 7.59058 177.845 8.33958C177.845 8.92849 178.062 9.41449 178.502 9.809C178.943 10.1978 179.514 10.3979 180.218 10.3979C180.686 10.3979 181.109 10.335 181.481 10.2035C181.858 10.072 182.236 9.87189 182.607 9.58601L182.682 10.2035H184.912V9.27155ZM179.434 9.1572C179.194 8.92849 179.074 8.63118 179.074 8.27097C179.074 7.80213 179.228 7.4648 179.543 7.25897C179.852 7.05313 180.24 6.95022 180.709 6.95022C181.31 6.95022 181.916 7.02454 182.539 7.16177V8.74553C181.813 9.24868 181.104 9.50025 180.412 9.50025C180 9.50025 179.674 9.3859 179.434 9.1572ZM197.993 9.27155H196.713V5.42363C196.713 4.6975 196.495 4.13146 196.072 3.72551C195.644 3.31956 195.1 3.11945 194.443 3.11945C193.694 3.11945 192.859 3.40533 191.95 3.9828V3.29669H189.326V4.22866H190.664V9.27155H189.326V10.2035H193.196V9.27155H191.95V4.87474C192.356 4.62889 192.733 4.44592 193.082 4.32586C193.425 4.20007 193.768 4.13718 194.111 4.13718C194.517 4.13718 194.843 4.2744 195.077 4.54312C195.312 4.81185 195.426 5.18921 195.426 5.66948V9.27155H194.283V10.2035H197.993V9.27155ZM210.412 9.27155H209.32V0.129165H206.787V1.04397H208.016V3.83986C207.679 3.60544 207.302 3.4282 206.896 3.30241C206.484 3.18234 206.078 3.11945 205.684 3.11945C205.06 3.11945 204.494 3.26239 203.974 3.54255C203.459 3.82271 203.048 4.24009 202.745 4.78898C202.442 5.33786 202.287 5.98967 202.287 6.73867C202.287 7.47623 202.447 8.12803 202.762 8.68264C203.082 9.23724 203.505 9.66606 204.048 9.95765C204.586 10.2492 205.175 10.3979 205.821 10.3979C206.644 10.3979 207.376 10.1692 208.016 9.7118V10.2035H210.412V9.27155ZM204.334 8.72838C203.871 8.27097 203.642 7.64204 203.642 6.8473C203.642 5.97823 203.854 5.30356 204.277 4.82328C204.694 4.34301 205.255 4.10287 205.947 4.10287C206.272 4.10287 206.621 4.16005 206.981 4.28012C207.347 4.39447 207.69 4.56028 208.016 4.77183V8.77984C207.41 9.20294 206.77 9.41449 206.101 9.41449C205.386 9.41449 204.797 9.18578 204.334 8.72838ZM216.101 1.52997C216.284 1.69578 216.507 1.78154 216.776 1.78154C217.044 1.78154 217.273 1.69578 217.456 1.52997C217.633 1.35844 217.725 1.14689 217.725 0.8896C217.725 0.626593 217.633 0.415043 217.456 0.243516C217.273 0.0777071 217.044 -0.00805664 216.776 -0.00805664C216.507 -0.00805664 216.284 0.0777071 216.101 0.243516C215.918 0.415043 215.827 0.626593 215.827 0.8896C215.827 1.14689 215.918 1.35844 216.101 1.52997ZM214.969 10.2035H218.834V9.27155H217.588V3.29669H214.986V4.22866H216.301V9.27155H214.969V10.2035ZM231.653 9.27155H230.566V0.129165H228.034V1.04397H229.263V3.83986C228.925 3.60544 228.548 3.4282 228.136 3.30241C227.725 3.18234 227.325 3.11945 226.924 3.11945C226.301 3.11945 225.735 3.26239 225.22 3.54255C224.706 3.82271 224.294 4.24009 223.991 4.78898C223.682 5.33786 223.534 5.98967 223.534 6.73867C223.534 7.47623 223.688 8.12803 224.008 8.68264C224.323 9.23724 224.752 9.66606 225.289 9.95765C225.827 10.2492 226.421 10.3979 227.067 10.3979C227.885 10.3979 228.617 10.1692 229.263 9.7118V10.2035H231.653V9.27155ZM225.581 8.72838C225.118 8.27097 224.883 7.64204 224.883 6.8473C224.883 5.97823 225.095 5.30356 225.518 4.82328C225.941 4.34301 226.495 4.10287 227.187 4.10287C227.519 4.10287 227.862 4.16005 228.228 4.28012C228.588 4.39447 228.937 4.56028 229.263 4.77183V8.77984C228.651 9.20294 228.016 9.41449 227.347 9.41449C226.633 9.41449 226.044 9.18578 225.581 8.72838ZM243.574 9.27155H242.488V5.56085C242.488 4.81185 242.23 4.21722 241.716 3.77697C241.195 3.33672 240.486 3.11945 239.589 3.11945C239.143 3.11945 238.662 3.18234 238.154 3.31385C237.645 3.43963 237.193 3.62831 236.81 3.87417L237.193 4.72037C237.559 4.52025 237.959 4.36588 238.399 4.25153C238.84 4.14289 239.229 4.08572 239.566 4.08572C240.086 4.08572 240.486 4.22294 240.772 4.49167C241.058 4.76039 241.201 5.16062 241.201 5.68664V6.40705C240.521 6.25267 239.886 6.17835 239.286 6.17835C238.457 6.17835 237.782 6.34987 237.273 6.69864C236.764 7.0417 236.507 7.59058 236.507 8.33958C236.507 8.92849 236.73 9.41449 237.17 9.809C237.61 10.1978 238.182 10.3979 238.885 10.3979C239.354 10.3979 239.772 10.335 240.149 10.2035C240.521 10.072 240.898 9.87189 241.275 9.58601L241.344 10.2035H243.574V9.27155ZM238.102 9.1572C237.862 8.92849 237.742 8.63118 237.742 8.27097C237.742 7.80213 237.896 7.4648 238.205 7.25897C238.514 7.05313 238.908 6.95022 239.377 6.95022C239.972 6.95022 240.584 7.02454 241.201 7.16177V8.74553C240.475 9.24868 239.766 9.50025 239.074 9.50025C238.668 9.50025 238.342 9.3859 238.102 9.1572ZM249.103 8.16234C249.103 9.52312 249.766 10.2035 251.104 10.2035H252.39V9.27155H251.333C250.995 9.27155 250.755 9.18578 250.612 9.00854C250.469 8.83129 250.401 8.52826 250.401 8.09373V4.22866H252.23V3.29669H250.401V0.432196L249.103 0.941059V3.29669H247.959V4.22866H249.103V8.16234ZM264.151 7.02455V6.68721C264.151 5.58372 263.848 4.71465 263.248 4.06857C262.642 3.42248 261.813 3.1023 260.761 3.1023C260.08 3.1023 259.463 3.25095 258.903 3.54827C258.348 3.8513 257.908 4.2744 257.588 4.83472C257.262 5.38932 257.102 6.02969 257.102 6.75582C257.102 7.47051 257.273 8.11088 257.61 8.66548C257.954 9.22009 258.422 9.65462 259.017 9.95765C259.617 10.2607 260.281 10.4151 261.007 10.4151C261.653 10.4151 262.23 10.295 262.745 10.0549C263.259 9.81471 263.688 9.49453 264.031 9.0943L263.574 8.30528C262.785 9.04284 261.916 9.41449 260.955 9.41449C260.263 9.41449 259.692 9.19722 259.246 8.7684C258.8 8.3453 258.537 7.76211 258.457 7.02455H264.151ZM262.871 6.21265H258.457C258.537 5.5437 258.788 5.01768 259.211 4.62889C259.634 4.24581 260.149 4.05141 260.761 4.05141C261.378 4.05141 261.887 4.24581 262.282 4.62889C262.67 5.01768 262.871 5.5437 262.871 6.21265Z" fill="#1F1F1F"/>
        </svg>

    </symbol>
</svg>